<mxfile host="drawio-plugin" modified="2022-02-22T09:37:21.914Z" agent="5.0 (Macintosh; Intel Mac OS X 12_2_1) AppleWebKit/537.36 (KHTML, like Gecko) Chrome/89.0.4389.114 Safari/537.36" etag="vtSUp288FQZZUJWu4cdw" version="15.5.4" type="embed" pages="2"><diagram id="27UEhvcbevQ5RNf_Fo5W" name="Status Quo"><mxGraphModel dx="1003" dy="574" grid="1" gridSize="10" guides="1" tooltips="1" connect="1" arrows="1" fold="1" page="1" pageScale="1" pageWidth="827" pageHeight="1169" math="0" shadow="0"><root><mxCell id="0"/><mxCell id="1" parent="0"/><mxCell id="15" value="No Data Analytics" style="rounded=0;whiteSpace=wrap;html=1;sketch=1;fontFamily=Architects Daughter;fontSource=https%3A%2F%2Ffonts.googleapis.com%2Fcss%3Ffamily%3DArchitects%2BDaughter;" parent="1" vertex="1"><mxGeometry x="120" y="380" width="320" height="40" as="geometry"/></mxCell><mxCell id="16" value="Operational Database Queries" style="rounded=0;whiteSpace=wrap;html=1;sketch=1;fontFamily=Architects Daughter;fontSource=https%3A%2F%2Ffonts.googleapis.com%2Fcss%3Ffamily%3DArchitects%2BDaughter;" parent="1" vertex="1"><mxGeometry x="160" y="320" width="320" height="40" as="geometry"/></mxCell><mxCell id="17" value="Analyze Own Data" style="rounded=0;whiteSpace=wrap;html=1;sketch=1;fontFamily=Architects Daughter;fontSource=https%3A%2F%2Ffonts.googleapis.com%2Fcss%3Ffamily%3DArchitects%2BDaughter;" parent="1" vertex="1"><mxGeometry x="200" y="260" width="320" height="40" as="geometry"/></mxCell><mxCell id="18" value="Analyze Cross-domain Data" style="rounded=0;whiteSpace=wrap;html=1;sketch=1;fontFamily=Architects Daughter;fontSource=https%3A%2F%2Ffonts.googleapis.com%2Fcss%3Ffamily%3DArchitects%2BDaughter;" parent="1" vertex="1"><mxGeometry x="240" y="200" width="320" height="40" as="geometry"/></mxCell><mxCell id="19" value="Publish Data as a Product" style="rounded=0;whiteSpace=wrap;html=1;sketch=1;fontFamily=Architects Daughter;fontSource=https%3A%2F%2Ffonts.googleapis.com%2Fcss%3Ffamily%3DArchitects%2BDaughter;" parent="1" vertex="1"><mxGeometry x="280" y="140" width="320" height="40" as="geometry"/></mxCell><mxCell id="20" value="Level 4" style="text;html=1;strokeColor=none;fillColor=none;align=center;verticalAlign=middle;whiteSpace=wrap;rounded=0;sketch=1;fontFamily=Architects Daughter;fontSource=https%3A%2F%2Ffonts.googleapis.com%2Fcss%3Ffamily%3DArchitects%2BDaughter;" parent="1" vertex="1"><mxGeometry x="210" y="145" width="60" height="30" as="geometry"/></mxCell><mxCell id="21" value="Level 3" style="text;html=1;strokeColor=none;fillColor=none;align=center;verticalAlign=middle;whiteSpace=wrap;rounded=0;sketch=1;fontFamily=Architects Daughter;fontSource=https%3A%2F%2Ffonts.googleapis.com%2Fcss%3Ffamily%3DArchitects%2BDaughter;" parent="1" vertex="1"><mxGeometry x="170" y="205" width="60" height="30" as="geometry"/></mxCell><mxCell id="22" value="Level 2" style="text;html=1;strokeColor=none;fillColor=none;align=center;verticalAlign=middle;whiteSpace=wrap;rounded=0;sketch=1;fontFamily=Architects Daughter;fontSource=https%3A%2F%2Ffonts.googleapis.com%2Fcss%3Ffamily%3DArchitects%2BDaughter;" parent="1" vertex="1"><mxGeometry x="130" y="265" width="60" height="30" as="geometry"/></mxCell><mxCell id="23" value="Level 1" style="text;html=1;strokeColor=none;fillColor=none;align=center;verticalAlign=middle;whiteSpace=wrap;rounded=0;sketch=1;fontFamily=Architects Daughter;fontSource=https%3A%2F%2Ffonts.googleapis.com%2Fcss%3Ffamily%3DArchitects%2BDaughter;" parent="1" vertex="1"><mxGeometry x="90" y="325" width="60" height="30" as="geometry"/></mxCell><mxCell id="24" value="Level 0" style="text;html=1;strokeColor=none;fillColor=none;align=center;verticalAlign=middle;whiteSpace=wrap;rounded=0;sketch=1;fontFamily=Architects Daughter;fontSource=https%3A%2F%2Ffonts.googleapis.com%2Fcss%3Ffamily%3DArchitects%2BDaughter;" parent="1" vertex="1"><mxGeometry x="50" y="385" width="60" height="30" as="geometry"/></mxCell><mxCell id="25" value="datamesh-architecture.com" style="text;html=1;strokeColor=none;fillColor=none;align=right;verticalAlign=middle;whiteSpace=wrap;rounded=0;sketch=1;fillStyle=hachure;fontFamily=Architects Daughter;fontSource=https%3A%2F%2Ffonts.googleapis.com%2Fcss%3Ffamily%3DArchitects%2BDaughter;fontSize=12;fontColor=#000000;" vertex="1" parent="1"><mxGeometry x="330" y="420" width="270" height="30" as="geometry"/></mxCell><mxCell id="26" value="Domain Team's Journey" style="text;html=1;strokeColor=none;fillColor=none;align=center;verticalAlign=middle;whiteSpace=wrap;rounded=0;sketch=1;fontFamily=Architects Daughter;fontSource=https%3A%2F%2Ffonts.googleapis.com%2Fcss%3Ffamily%3DArchitects%2BDaughter;fontSize=21;fontStyle=1" vertex="1" parent="1"><mxGeometry x="60" y="90" width="540" height="30" as="geometry"/></mxCell></root></mxGraphModel></diagram><diagram id="F44mslXG7EauhRFhVprv" name="Page-2"><mxGraphModel dx="1382" dy="683" grid="1" gridSize="10" guides="1" tooltips="1" connect="1" arrows="1" fold="1" page="1" pageScale="1" pageWidth="850" pageHeight="1100" math="0" shadow="0"><root><mxCell id="AAQ9BwyIkS6VjVYWZHyZ-0"/><mxCell id="AAQ9BwyIkS6VjVYWZHyZ-1" parent="AAQ9BwyIkS6VjVYWZHyZ-0"/><mxCell id="AAQ9BwyIkS6VjVYWZHyZ-2" value="" style="edgeStyle=orthogonalEdgeStyle;rounded=0;orthogonalLoop=1;jettySize=auto;html=1;" edge="1" parent="AAQ9BwyIkS6VjVYWZHyZ-1" source="AAQ9BwyIkS6VjVYWZHyZ-4" target="AAQ9BwyIkS6VjVYWZHyZ-7"><mxGeometry relative="1" as="geometry"/></mxCell><mxCell id="AAQ9BwyIkS6VjVYWZHyZ-3" value="shapes" style="edgeLabel;html=1;align=center;verticalAlign=middle;resizable=0;points=[];" vertex="1" connectable="0" parent="AAQ9BwyIkS6VjVYWZHyZ-2"><mxGeometry x="0.2667" y="-4" relative="1" as="geometry"><mxPoint x="-13" y="-4" as="offset"/></mxGeometry></mxCell><mxCell id="AAQ9BwyIkS6VjVYWZHyZ-4" value="STRATEGY" style="rounded=0;whiteSpace=wrap;html=1;" vertex="1" parent="AAQ9BwyIkS6VjVYWZHyZ-1"><mxGeometry x="49" y="240" width="120" height="60" as="geometry"/></mxCell><mxCell id="AAQ9BwyIkS6VjVYWZHyZ-5" value="" style="edgeStyle=orthogonalEdgeStyle;rounded=0;orthogonalLoop=1;jettySize=auto;html=1;" edge="1" parent="AAQ9BwyIkS6VjVYWZHyZ-1" source="AAQ9BwyIkS6VjVYWZHyZ-7" target="AAQ9BwyIkS6VjVYWZHyZ-10"><mxGeometry relative="1" as="geometry"/></mxCell><mxCell id="AAQ9BwyIkS6VjVYWZHyZ-6" value="build" style="edgeLabel;html=1;align=center;verticalAlign=middle;resizable=0;points=[];" vertex="1" connectable="0" parent="AAQ9BwyIkS6VjVYWZHyZ-5"><mxGeometry x="-0.275" relative="1" as="geometry"><mxPoint x="5" as="offset"/></mxGeometry></mxCell><mxCell id="AAQ9BwyIkS6VjVYWZHyZ-7" value="ORGANIZATION" style="rounded=0;whiteSpace=wrap;html=1;" vertex="1" parent="AAQ9BwyIkS6VjVYWZHyZ-1"><mxGeometry x="259" y="240" width="120" height="60" as="geometry"/></mxCell><mxCell id="AAQ9BwyIkS6VjVYWZHyZ-8" value="" style="edgeStyle=orthogonalEdgeStyle;rounded=0;orthogonalLoop=1;jettySize=auto;html=1;" edge="1" parent="AAQ9BwyIkS6VjVYWZHyZ-1" source="AAQ9BwyIkS6VjVYWZHyZ-10" target="AAQ9BwyIkS6VjVYWZHyZ-11"><mxGeometry relative="1" as="geometry"/></mxCell><mxCell id="AAQ9BwyIkS6VjVYWZHyZ-9" value="generate" style="edgeLabel;html=1;align=center;verticalAlign=middle;resizable=0;points=[];" vertex="1" connectable="0" parent="AAQ9BwyIkS6VjVYWZHyZ-8"><mxGeometry x="-0.1" y="-2" relative="1" as="geometry"><mxPoint x="4" y="-2" as="offset"/></mxGeometry></mxCell><mxCell id="AAQ9BwyIkS6VjVYWZHyZ-10" value="SOFTWARE" style="rounded=0;whiteSpace=wrap;html=1;" vertex="1" parent="AAQ9BwyIkS6VjVYWZHyZ-1"><mxGeometry x="459" y="240" width="120" height="60" as="geometry"/></mxCell><mxCell id="AAQ9BwyIkS6VjVYWZHyZ-11" value="DATA" style="rounded=0;whiteSpace=wrap;html=1;" vertex="1" parent="AAQ9BwyIkS6VjVYWZHyZ-1"><mxGeometry x="659" y="240" width="120" height="60" as="geometry"/></mxCell><mxCell id="AAQ9BwyIkS6VjVYWZHyZ-12" value="&lt;meta charset=&quot;utf-8&quot;&gt;&lt;span style=&quot;color: rgb(240, 240, 240); font-family: helvetica; font-size: 12px; font-style: normal; font-weight: 400; letter-spacing: normal; text-indent: 0px; text-transform: none; word-spacing: 0px; background-color: rgb(42, 42, 42); display: inline; float: none;&quot;&gt;Strategic&lt;/span&gt;&lt;br style=&quot;color: rgb(240, 240, 240); font-family: helvetica; font-size: 12px; font-style: normal; font-weight: 400; letter-spacing: normal; text-indent: 0px; text-transform: none; word-spacing: 0px; background-color: rgb(42, 42, 42);&quot;&gt;&lt;span style=&quot;color: rgb(240, 240, 240); font-family: helvetica; font-size: 12px; font-style: normal; font-weight: 400; letter-spacing: normal; text-indent: 0px; text-transform: none; word-spacing: 0px; background-color: rgb(42, 42, 42); display: inline; float: none;&quot;&gt;Domain-driven Design&lt;/span&gt;" style="text;whiteSpace=wrap;html=1;align=center;" vertex="1" parent="AAQ9BwyIkS6VjVYWZHyZ-1"><mxGeometry x="44" y="310" width="130" height="40" as="geometry"/></mxCell><mxCell id="AAQ9BwyIkS6VjVYWZHyZ-13" value="&lt;meta charset=&quot;utf-8&quot;&gt;&lt;span style=&quot;color: rgb(240, 240, 240); font-family: helvetica; font-size: 12px; font-style: normal; font-weight: 400; letter-spacing: normal; text-indent: 0px; text-transform: none; word-spacing: 0px; background-color: rgb(42, 42, 42); display: inline; float: none;&quot;&gt;Autonomous&lt;/span&gt;&lt;br style=&quot;color: rgb(240, 240, 240); font-family: helvetica; font-size: 12px; font-style: normal; font-weight: 400; letter-spacing: normal; text-indent: 0px; text-transform: none; word-spacing: 0px; background-color: rgb(42, 42, 42);&quot;&gt;&lt;span style=&quot;color: rgb(240, 240, 240); font-family: helvetica; font-size: 12px; font-style: normal; font-weight: 400; letter-spacing: normal; text-indent: 0px; text-transform: none; word-spacing: 0px; background-color: rgb(42, 42, 42); display: inline; float: none;&quot;&gt;Domain Teams&lt;/span&gt;" style="text;whiteSpace=wrap;html=1;align=center;" vertex="1" parent="AAQ9BwyIkS6VjVYWZHyZ-1"><mxGeometry x="259" y="310" width="121" height="40" as="geometry"/></mxCell><mxCell id="AAQ9BwyIkS6VjVYWZHyZ-14" value="&lt;meta charset=&quot;utf-8&quot;&gt;&lt;span style=&quot;color: rgb(240, 240, 240); font-family: helvetica; font-size: 12px; font-style: normal; font-weight: 400; letter-spacing: normal; text-indent: 0px; text-transform: none; word-spacing: 0px; background-color: rgb(42, 42, 42); display: inline; float: none;&quot;&gt;Self-contained Systems /&lt;/span&gt;&lt;br style=&quot;color: rgb(240, 240, 240); font-family: helvetica; font-size: 12px; font-style: normal; font-weight: 400; letter-spacing: normal; text-indent: 0px; text-transform: none; word-spacing: 0px; background-color: rgb(42, 42, 42);&quot;&gt;&lt;span style=&quot;color: rgb(240, 240, 240); font-family: helvetica; font-size: 12px; font-style: normal; font-weight: 400; letter-spacing: normal; text-indent: 0px; text-transform: none; word-spacing: 0px; background-color: rgb(42, 42, 42); display: inline; float: none;&quot;&gt;Microservices&lt;/span&gt;" style="text;whiteSpace=wrap;html=1;align=center;" vertex="1" parent="AAQ9BwyIkS6VjVYWZHyZ-1"><mxGeometry x="440" y="310" width="160" height="40" as="geometry"/></mxCell><mxCell id="AAQ9BwyIkS6VjVYWZHyZ-15" value="&lt;meta charset=&quot;utf-8&quot;&gt;&lt;span style=&quot;color: rgb(240, 240, 240); font-family: helvetica; font-size: 12px; font-style: normal; font-weight: 400; letter-spacing: normal; text-indent: 0px; text-transform: none; word-spacing: 0px; background-color: rgb(42, 42, 42); display: inline; float: none;&quot;&gt;Data Mesh&lt;/span&gt;" style="text;whiteSpace=wrap;html=1;align=center;" vertex="1" parent="AAQ9BwyIkS6VjVYWZHyZ-1"><mxGeometry x="660" y="315" width="120" height="30" as="geometry"/></mxCell></root></mxGraphModel></diagram></mxfile>